<?xml version="1.0" encoding="utf-8"?>
<!-- Generator: Adobe Illustrator 26.0.1, SVG Export Plug-In . SVG Version: 6.00 Build 0)  -->
<svg version="1.1" id="Capa_1" xmlns="http://www.w3.org/2000/svg" xmlns:xlink="http://www.w3.org/1999/xlink" x="0px" y="0px"
	 viewBox="0 0 512 512" style="enable-background:new 0 0 512 512;" xml:space="preserve">
<style type="text/css">
	.st0{fill:#513E91;stroke:#513E91;stroke-miterlimit:10;}
	.st1{fill:#3A4798;stroke:#FFFFFF;stroke-width:20;stroke-miterlimit:10;}
</style>
<circle class="st0" cx="257.03" cy="254.98" r="240.16"/>
<g>
	<path class="st1" d="M364.09,207.49c-3.33,0-6.66,0.24-9.94,0.72c-15.58-33.32-49.1-54.73-86-54.73
		c-20.37,0-39.79,6.36-56.16,18.39c-15.42,11.34-26.88,26.74-33.26,44.63c-1.01-0.08-2.03-0.13-3.03-0.13
		c-14.23,0-26.93,8.11-32.95,20.86c-2.47-0.35-4.95-0.52-7.4-0.52c-29.39,0-53.29,23.91-53.29,53.29
		c0,29.39,23.91,53.29,53.29,53.29h25c1.08,0.02,2.15,0.03,3.21,0.03c1.04,0,2.07-0.01,3.09-0.03h4.11v-0.14
		c26.46-1.24,46.58-9.43,59.89-24.44c11.28-12.71,15.31-27.95,16.71-38.5c1-7.56,0.84-13.77,0.6-17.2
		c7.35-1.42,12.93-7.9,12.93-15.66c0-8.8-7.16-15.95-15.95-15.95c-8.8,0-15.95,7.16-15.95,15.95c0,7.93,5.82,14.52,13.41,15.75
		c0.54,7.53,0.92,32.97-15.89,51.92c-12.92,14.57-33.09,22.19-59.98,22.7h-31.16c-26.32,0-47.73-21.41-47.73-47.73
		c0-26.32,21.41-47.73,47.73-47.73c2.83,0,5.72,0.26,8.59,0.79l2.23,0.41l0.84-2.11c4.73-11.79,15.98-19.42,28.68-19.42
		c1.5,0,3.02,0.11,4.53,0.33l2.31,0.34l0.73-2.22c5.84-17.71,16.9-32.94,32-44.04c15.4-11.33,33.68-17.31,52.87-17.31
		c35.41,0,67.52,20.95,81.8,53.38l0.88,2l2.15-0.39c3.64-0.65,7.37-0.99,11.1-0.99c34.38,0,62.34,27.97,62.34,62.34
		s-27.97,62.34-62.34,62.34h-64.61c-1.32-7.48-7.86-13.17-15.71-13.17c-8.8,0-15.95,7.16-15.95,15.95c0,8.8,7.16,15.95,15.95,15.95
		c7.85,0,14.39-5.7,15.71-13.17h64.61c37.44,0,67.91-30.46,67.91-67.91S401.54,207.49,364.09,207.49z M234.55,247.37
		c0-5.73,4.66-10.39,10.39-10.39c5.73,0,10.39,4.66,10.39,10.39c0,5.73-4.66,10.39-10.39,10.39
		C239.22,257.76,234.55,253.1,234.55,247.37z"/>
</g>
</svg>
