<?xml version="1.0" encoding="UTF-8"?>
<!-- Generator: Adobe Illustrator 26.0.1, SVG Export Plug-In . SVG Version: 6.00 Build 0)  -->
<svg version="1.1" id="Capa_1" xmlns="http://www.w3.org/2000/svg" xmlns:xlink="http://www.w3.org/1999/xlink" x="0px" y="0px" viewBox="0 0 1644 595.3" style="enable-background:new 0 0 1644 595.3;" xml:space="preserve">
<style type="text/css">
	.st0{fill:#5F22C1;}
	.st1{fill:#4C18B2;}
	.st2{fill:#5F22C1;stroke:#5F22C1;stroke-width:17;stroke-miterlimit:10;}
</style>
<g>
	<path class="st0" d="M521,332.2V173.5h21.8l29.2,84.1h0.5l29-84.1h22.1v158.8h-22.8v-96.6h-0.5l-22.5,68.2h-11.4l-22.3-68.2h-0.5   v96.6H521z"/>
	<path class="st0" d="M681.8,210.9c0-6.4,1.1-12,3.3-16.9c2.2-4.9,5.2-9,8.9-12.3c3.6-3.1,7.6-5.5,12.2-7.1   c4.5-1.6,9.1-2.4,13.7-2.4c4.6,0,9.2,0.8,13.7,2.4c4.5,1.6,8.7,4,12.4,7.1c3.6,3.3,6.5,7.4,8.7,12.3c2.2,4.9,3.3,10.6,3.3,16.9   v83.9c0,6.7-1.1,12.4-3.3,17.2c-2.2,4.8-5.1,8.7-8.7,11.8c-3.7,3.3-7.8,5.7-12.4,7.4c-4.5,1.6-9.1,2.5-13.7,2.5   c-4.6,0-9.2-0.8-13.7-2.5c-4.5-1.6-8.6-4.1-12.2-7.4c-3.7-3.1-6.7-7.1-8.9-11.8s-3.3-10.5-3.3-17.2V210.9z M704.5,294.8   c0,5.5,1.5,9.5,4.6,12.1s6.7,3.9,10.8,3.9c4.2,0,7.8-1.3,10.8-3.9s4.6-6.6,4.6-12.1v-83.9c0-5.5-1.5-9.6-4.6-12.1   c-3-2.6-6.7-3.9-10.8-3.9c-4.2,0-7.8,1.3-10.8,3.9c-3,2.6-4.6,6.7-4.6,12.1V294.8z"/>
	<path class="st0" d="M889.4,173.5l-32.6,158.8h-20.1l-32.3-158.8h24.1l18.1,110.8h0.5l18.3-110.8L889.4,173.5L889.4,173.5z"/>
	<path class="st0" d="M941.8,332.2V173.5h22.8v158.8H941.8z"/>
	<path class="st0" d="M1024.8,332.2V173.5h22.8v136h45.1v22.8H1024.8z"/>
	<path class="st0" d="M1221.9,332.2v-21.4l41-77.4c2.1-3.9,3.3-7.2,3.6-10.1c0.3-2.9,0.4-6.5,0.4-10.8c0-1.9,0-4-0.1-6.1   c-0.1-2.1-0.5-4.1-1.2-5.7c-0.8-1.6-1.9-3-3.3-4.1c-1.5-1.1-3.6-1.7-6.5-1.7c-3.4,0-6.1,1-8.1,2.9s-3,4.8-3,8.5v12.9h-22.8v-12.5   c0-4.8,0.9-9.2,2.7-13.4c1.8-4.2,4.2-7.8,7.4-10.9c3-3.1,6.5-5.6,10.7-7.5c4.2-1.9,8.6-2.8,13.4-2.8c5.9,0,11,1.1,15.3,3.2   c4.2,2.2,7.8,5.1,10.6,8.8c2.7,3.7,4.6,8,5.9,12.7c1.3,4.8,1.9,9.8,1.9,15.2c0,3.9-0.1,7.1-0.2,9.7c-0.2,2.6-0.4,5.1-0.9,7.5   c-0.4,2.4-1.2,4.8-2.2,7.1s-2.4,5.3-4.2,8.7l-33.4,64.5h41v22.8H1221.9z"/>
	<path class="st0" d="M1382.7,332.2v-23.6h-45.3v-21.4l32.8-113.7h24.1l-34.1,113.7h22.5v-45.3h22.8v45.3h10.9v21.4h-10.9v23.6   H1382.7z"/>
	<path class="st0" d="M1469.2,332.2l39.9-137.4h-25v18.3h-20.1v-39.7h67.8v22.8l-38.6,136L1469.2,332.2L1469.2,332.2z"/>
</g>
<g>
	<path class="st1" d="M533.6,366.4H547l15.3,35.5h-10.5l-3.2-7.5h-16.6l-3.2,7.5h-10.5L533.6,366.4z M545.8,387.9l-5.5-12.6   l-5.5,12.6H545.8z"/>
	<path class="st1" d="M594.9,366.4h11.6l15.3,21.3v-21.3h10.8v35.5H621l-15.3-21.3v21.3h-10.8V366.4z"/>
	<path class="st1" d="M680.3,366.4h13.4l15.3,35.5h-10.5l-3.2-7.5h-16.6l-3.2,7.5H665L680.3,366.4z M692.5,387.9l-5.5-12.6   l-5.5,12.6H692.5z"/>
	<path class="st1" d="M741.6,366.4h10.8v29h22v6.5h-32.8V366.4z"/>
	<path class="st1" d="M807.7,366.4h10.8v35.5h-10.8V366.4z"/>
	<path class="st1" d="M854,395.4h22.8c1.2,0,1.9-0.5,1.9-1.5v-5.9c0-1-0.6-1.5-1.9-1.5h-13.7c-6.1,0-9.1-2.4-9.1-7.3v-5.5   c0-4.9,3.1-7.3,9.1-7.3h23.7v6.5h-20.2c-1.2,0-1.9,0.5-1.9,1.5v4.2c0,1,0.7,1.5,1.9,1.5h13.7c6.1,0,9.1,2.4,9.1,7.3v7.1   c0,4.9-3.1,7.3-9.1,7.3H854V395.4z"/>
	<path class="st1" d="M924.9,366.4h10.8v35.5h-10.8V366.4z"/>
	<path class="st1" d="M971.1,395.4H994c1.2,0,1.9-0.5,1.9-1.5v-5.9c0-1-0.6-1.5-1.9-1.5h-13.7c-6.1,0-9.1-2.4-9.1-7.3v-5.5   c0-4.9,3.1-7.3,9.1-7.3h23.7v6.5h-20.2c-1.2,0-1.9,0.5-1.9,1.5v4.2c0,1,0.7,1.5,1.9,1.5h13.7c6.1,0,9.1,2.4,9.1,7.3v7.1   c0,4.9-3.1,7.3-9.1,7.3h-26.3V395.4z"/>
	<path class="st1" d="M1087.8,366.4h18.8c12.2,0,18.3,4.9,18.3,14.6v6.2c0,9.7-6.1,14.6-18.3,14.6h-18.8V366.4z M1104.4,395.4   c6.4,0,9.7-2.6,9.7-7.7v-7.1c0-5.2-3.2-7.7-9.7-7.7h-5.9v22.6H1104.4z"/>
	<path class="st1" d="M1160.3,366.4h34.4v6.5h-23.7v7.3h21v6.5h-21v8.9h23.7v6.5h-34.4V366.4z"/>
	<path class="st1" d="M1275.4,366.4h18.8c12.2,0,18.3,4.9,18.3,14.6v6.2c0,9.7-6.1,14.6-18.3,14.6h-18.8V366.4z M1292,395.4   c6.4,0,9.7-2.6,9.7-7.7v-7.1c0-5.2-3.2-7.7-9.7-7.7h-5.9v22.6H1292z"/>
	<path class="st1" d="M1359.8,366.4h13.4l15.3,35.5H1378l-3.2-7.5h-16.6l-3.2,7.5h-10.5L1359.8,366.4z M1372,387.9l-5.5-12.6   l-5.5,12.6H1372z"/>
	<path class="st1" d="M1418.3,366.4h39.8v6.5h-14.5v29h-10.8v-29h-14.5L1418.3,366.4L1418.3,366.4z"/>
	<path class="st1" d="M1503.3,366.4h13.4l15.3,35.5h-10.5l-3.2-7.5h-16.6l-3.2,7.5h-10.5L1503.3,366.4z M1515.5,387.9l-5.5-12.6   l-5.5,12.6H1515.5z"/>
</g>
<text transform="matrix(1 0 0 1 1450.1309 704.6905)" style="font-family:'Xolonium'; font-size:22.618px; letter-spacing:9;">Xolonium</text>
<text transform="matrix(1 0 0 1 1449.5703 676.6651)" style="font-family:'Bebas-Regular'; font-size:25.9572px; letter-spacing:3;">Bebas Regular</text>
<g>
	<g>
		<path class="st2" d="M403.5,234.3c-3.7,0-7.5,0.3-11.2,0.8c-17.5-37.5-55.2-61.6-96.8-61.6c-22.9,0-44.8,7.2-63.2,20.7    C215,207,202.1,224.3,195,244.4c-1.1-0.1-2.3-0.1-3.4-0.1c-16,0-30.3,9.1-37.1,23.5c-2.8-0.4-5.6-0.6-8.3-0.6    c-33.1,0-59.9,26.9-59.9,60c0,33.1,26.9,60,59.9,60h28.1c1.2,0,2.4,0,3.6,0c1.2,0,2.3,0,3.5,0h4.6v-0.2    c29.8-1.4,52.4-10.6,67.4-27.5c12.7-14.3,17.2-31.5,18.8-43.3c1.1-8.5,0.9-15.5,0.7-19.4c8.3-1.6,14.5-8.9,14.5-17.6    c0-9.9-8-18-18-18c-9.9,0-17.9,8-17.9,18c0,8.9,6.5,16.3,15.1,17.7c0.6,8.5,1,37.1-17.9,58.4c-14.5,16.4-37.2,25-67.5,25.5h-35.1    c-29.6,0-53.7-24.1-53.7-53.7c0-29.6,24.1-53.7,53.7-53.7c3.2,0,6.4,0.3,9.7,0.9l2.5,0.5l0.9-2.4c5.3-13.3,18-21.8,32.3-21.8    c1.7,0,3.4,0.1,5.1,0.4l2.6,0.4l0.8-2.5c6.6-19.9,19-37.1,36-49.6c17.3-12.7,37.9-19.5,59.5-19.5c39.8,0,76,23.6,92,60.1l1,2.2    l2.4-0.4c4.1-0.7,8.3-1.1,12.5-1.1c38.7,0,70.1,31.5,70.1,70.1s-31.5,70.1-70.1,70.1h-72.7c-1.5-8.4-8.8-14.8-17.7-14.8    c-9.9,0-18,8-18,18c0,9.9,8,18,18,18c8.8,0,16.2-6.4,17.7-14.8h72.7c42.1,0,76.4-34.3,76.4-76.4S445.6,234.3,403.5,234.3z     M257.8,279.1c0-6.5,5.2-11.7,11.7-11.7s11.7,5.2,11.7,11.7s-5.2,11.7-11.7,11.7C263,290.8,257.8,285.6,257.8,279.1z"/>
	</g>
</g>
<text transform="matrix(1 0 0 1 352.712 889.7907)" class="st0" style="font-family:'Bebas-Regular'; font-size:223.001px; letter-spacing:37;">MOVIL 247</text>
<text transform="matrix(1 0 0 1 360.4483 959.4304)" class="st1" style="font-family:'Xolonium-Bold'; font-size:53.7508px; letter-spacing:30;">ANALISIS DE DATA</text>
</svg>